<?xml version="1.0" encoding="UTF-8"?>
<svg xmlns="http://www.w3.org/2000/svg" xmlns:xlink="http://www.w3.org/1999/xlink" width="16px" height="12px" viewBox="0 0 16 12" version="1.1">
<g id="surface1">
<path style=" stroke:none;fill-rule:nonzero;fill:rgb(78.431374%,6.27451%,18.039216%);fill-opacity:1;" d="M 0 0 C 5.28125 0 10.558594 0 16 0 C 16 3.960938 16 7.921875 16 12 C 10.71875 12 5.441406 12 0 12 C 0 8.039062 0 4.078125 0 0 Z M 0 0 "/>
<path style=" stroke:none;fill-rule:nonzero;fill:rgb(99.607843%,99.607843%,99.607843%);fill-opacity:1;" d="M 8.800781 7.199219 C 11.175781 7.199219 13.550781 7.199219 16 7.199219 C 16 8.785156 16 10.367188 16 12 C 13.625 12 11.246094 12 8.800781 12 C 8.800781 10.414062 8.800781 8.832031 8.800781 7.199219 Z M 8.800781 7.199219 "/>
<path style=" stroke:none;fill-rule:nonzero;fill:rgb(99.607843%,99.607843%,99.607843%);fill-opacity:1;" d="M 0 7.199219 C 2.375 7.199219 4.753906 7.199219 7.199219 7.199219 C 7.199219 8.785156 7.199219 10.367188 7.199219 12 C 4.824219 12 2.449219 12 0 12 C 0 10.414062 0 8.832031 0 7.199219 Z M 0 7.199219 "/>
<path style=" stroke:none;fill-rule:nonzero;fill:rgb(99.607843%,99.607843%,99.607843%);fill-opacity:1;" d="M 8.800781 0 C 11.175781 0 13.550781 0 16 0 C 16 1.585938 16 3.167969 16 4.800781 C 13.625 4.800781 11.246094 4.800781 8.800781 4.800781 C 8.800781 3.214844 8.800781 1.632812 8.800781 0 Z M 8.800781 0 "/>
<path style=" stroke:none;fill-rule:nonzero;fill:rgb(99.607843%,99.607843%,99.607843%);fill-opacity:1;" d="M 0 0 C 2.375 0 4.753906 0 7.199219 0 C 7.199219 1.585938 7.199219 3.167969 7.199219 4.800781 C 4.824219 4.800781 2.449219 4.800781 0 4.800781 C 0 3.214844 0 1.632812 0 0 Z M 0 0 "/>
<path style=" stroke:none;fill-rule:nonzero;fill:rgb(0.392157%,12.941177%,41.176471%);fill-opacity:1;" d="M 9.332031 8.351562 C 9.402344 8.382812 9.457031 8.414062 9.519531 8.460938 C 9.535156 8.472656 9.554688 8.488281 9.570312 8.5 C 9.589844 8.515625 9.609375 8.527344 9.625 8.542969 C 9.644531 8.554688 9.664062 8.570312 9.6875 8.585938 C 9.738281 8.625 9.792969 8.667969 9.847656 8.707031 C 9.90625 8.75 9.964844 8.796875 10.023438 8.839844 C 10.125 8.914062 10.226562 8.992188 10.328125 9.066406 C 10.472656 9.175781 10.621094 9.285156 10.765625 9.398438 C 11.003906 9.574219 11.238281 9.753906 11.476562 9.929688 C 11.707031 10.105469 11.9375 10.277344 12.167969 10.449219 C 12.183594 10.460938 12.199219 10.472656 12.210938 10.484375 C 12.285156 10.535156 12.355469 10.589844 12.425781 10.644531 C 13.015625 11.085938 13.609375 11.53125 14.199219 11.976562 C 14.199219 11.984375 14.199219 11.992188 14.199219 12 C 12.59375 12 10.988281 12 9.332031 12 C 9.332031 10.796875 9.332031 9.589844 9.332031 8.351562 Z M 9.332031 8.351562 "/>
<path style=" stroke:none;fill-rule:nonzero;fill:rgb(0.392157%,12.941177%,41.176471%);fill-opacity:1;" d="M 6.667969 8.351562 C 6.667969 9.554688 6.667969 10.757812 6.667969 12 C 5.0625 12 3.453125 12 1.800781 12 C 1.851562 11.941406 1.894531 11.902344 1.949219 11.859375 C 1.964844 11.847656 1.984375 11.835938 2 11.820312 C 2.019531 11.808594 2.035156 11.792969 2.054688 11.78125 C 2.085938 11.757812 2.085938 11.757812 2.113281 11.734375 C 2.167969 11.695312 2.222656 11.65625 2.277344 11.613281 C 2.335938 11.570312 2.394531 11.527344 2.453125 11.484375 C 2.566406 11.398438 2.679688 11.3125 2.796875 11.226562 C 2.886719 11.15625 2.980469 11.085938 3.074219 11.015625 C 3.085938 11.007812 3.101562 10.996094 3.113281 10.984375 C 3.140625 10.964844 3.167969 10.945312 3.195312 10.925781 C 3.445312 10.738281 3.699219 10.546875 3.949219 10.359375 C 4.164062 10.199219 4.382812 10.035156 4.597656 9.875 C 4.847656 9.683594 5.101562 9.496094 5.351562 9.308594 C 5.378906 9.289062 5.402344 9.269531 5.429688 9.25 C 5.445312 9.238281 5.457031 9.230469 5.46875 9.21875 C 5.5625 9.148438 5.65625 9.078125 5.75 9.011719 C 5.863281 8.925781 5.976562 8.839844 6.089844 8.753906 C 6.144531 8.710938 6.203125 8.667969 6.261719 8.625 C 6.324219 8.578125 6.386719 8.53125 6.449219 8.484375 C 6.46875 8.472656 6.484375 8.457031 6.503906 8.441406 C 6.519531 8.429688 6.539062 8.417969 6.554688 8.40625 C 6.570312 8.394531 6.582031 8.382812 6.597656 8.371094 C 6.632812 8.351562 6.632812 8.351562 6.667969 8.351562 Z M 6.667969 8.351562 "/>
<path style=" stroke:none;fill-rule:nonzero;fill:rgb(0.392157%,12.941177%,41.176471%);fill-opacity:1;" d="M 9.332031 0 C 10.9375 0 12.546875 0 14.199219 0 C 14.148438 0.0585938 14.105469 0.0976562 14.050781 0.140625 C 14.035156 0.152344 14.015625 0.164062 14 0.179688 C 13.972656 0.199219 13.972656 0.199219 13.945312 0.21875 C 13.925781 0.234375 13.90625 0.25 13.886719 0.265625 C 13.832031 0.304688 13.777344 0.34375 13.722656 0.386719 C 13.664062 0.429688 13.605469 0.472656 13.546875 0.515625 C 13.433594 0.601562 13.320312 0.6875 13.203125 0.773438 C 13.113281 0.84375 13.019531 0.914062 12.925781 0.984375 C 12.914062 0.992188 12.898438 1.003906 12.886719 1.015625 C 12.859375 1.035156 12.832031 1.054688 12.804688 1.074219 C 12.554688 1.261719 12.300781 1.453125 12.050781 1.640625 C 11.835938 1.800781 11.617188 1.964844 11.402344 2.125 C 11.152344 2.316406 10.898438 2.503906 10.648438 2.691406 C 10.621094 2.710938 10.597656 2.730469 10.570312 2.75 C 10.554688 2.761719 10.542969 2.769531 10.53125 2.78125 C 10.4375 2.851562 10.34375 2.921875 10.25 2.988281 C 10.136719 3.074219 10.023438 3.160156 9.910156 3.246094 C 9.855469 3.289062 9.796875 3.332031 9.738281 3.375 C 9.675781 3.421875 9.613281 3.46875 9.550781 3.515625 C 9.523438 3.535156 9.523438 3.535156 9.496094 3.558594 C 9.46875 3.574219 9.46875 3.574219 9.445312 3.59375 C 9.429688 3.605469 9.417969 3.617188 9.402344 3.628906 C 9.367188 3.648438 9.367188 3.648438 9.332031 3.648438 C 9.332031 2.445312 9.332031 1.242188 9.332031 0 Z M 9.332031 0 "/>
<path style=" stroke:none;fill-rule:nonzero;fill:rgb(0.392157%,12.941177%,41.176471%);fill-opacity:1;" d="M 1.800781 0 C 3.40625 0 5.011719 0 6.667969 0 C 6.667969 1.203125 6.667969 2.410156 6.667969 3.648438 C 6.597656 3.617188 6.542969 3.585938 6.480469 3.539062 C 6.464844 3.527344 6.445312 3.511719 6.429688 3.5 C 6.410156 3.484375 6.390625 3.472656 6.375 3.457031 C 6.355469 3.445312 6.335938 3.429688 6.3125 3.414062 C 6.261719 3.375 6.207031 3.332031 6.152344 3.292969 C 6.09375 3.25 6.035156 3.203125 5.976562 3.160156 C 5.875 3.085938 5.773438 3.007812 5.671875 2.933594 C 5.527344 2.824219 5.378906 2.714844 5.234375 2.601562 C 4.996094 2.425781 4.761719 2.246094 4.523438 2.070312 C 4.292969 1.894531 4.0625 1.722656 3.832031 1.550781 C 3.816406 1.539062 3.800781 1.527344 3.789062 1.515625 C 3.714844 1.464844 3.644531 1.410156 3.574219 1.355469 C 2.984375 0.914062 2.390625 0.46875 1.800781 0.0234375 C 1.800781 0.015625 1.800781 0.0078125 1.800781 0 Z M 1.800781 0 "/>
<path style=" stroke:none;fill-rule:nonzero;fill:rgb(78.431374%,7.058824%,18.82353%);fill-opacity:1;" d="M 15.984375 0 C 15.933594 0.0585938 15.886719 0.101562 15.832031 0.144531 C 15.8125 0.160156 15.792969 0.171875 15.777344 0.1875 C 15.757812 0.203125 15.738281 0.21875 15.71875 0.234375 C 15.695312 0.25 15.675781 0.265625 15.65625 0.28125 C 15.597656 0.328125 15.542969 0.371094 15.484375 0.414062 C 15.449219 0.445312 15.410156 0.472656 15.375 0.5 C 14.90625 0.863281 14.441406 1.222656 13.972656 1.582031 C 13.894531 1.640625 13.820312 1.699219 13.742188 1.757812 C 13.71875 1.773438 13.71875 1.773438 13.695312 1.792969 C 13.449219 1.980469 13.207031 2.171875 12.960938 2.363281 C 12.707031 2.558594 12.457031 2.753906 12.203125 2.945312 C 12.058594 3.054688 11.917969 3.164062 11.777344 3.277344 C 10.996094 3.898438 10.367188 4.136719 9.484375 4 C 9.53125 3.941406 9.582031 3.898438 9.636719 3.855469 C 9.652344 3.839844 9.671875 3.828125 9.691406 3.8125 C 9.71875 3.789062 9.71875 3.789062 9.75 3.765625 C 9.769531 3.75 9.789062 3.734375 9.8125 3.71875 C 9.867188 3.671875 9.925781 3.628906 9.984375 3.585938 C 10.019531 3.554688 10.054688 3.527344 10.09375 3.5 C 10.558594 3.136719 11.027344 2.777344 11.496094 2.417969 C 11.570312 2.359375 11.648438 2.300781 11.726562 2.242188 C 11.746094 2.226562 11.746094 2.226562 11.769531 2.207031 C 12.015625 2.019531 12.261719 1.828125 12.503906 1.636719 C 12.757812 1.441406 13.011719 1.246094 13.265625 1.054688 C 13.40625 0.945312 13.546875 0.835938 13.6875 0.722656 C 14.46875 0.101562 15.097656 -0.136719 15.984375 0 Z M 15.984375 0 "/>
<path style=" stroke:none;fill-rule:nonzero;fill:rgb(78.431374%,7.058824%,18.82353%);fill-opacity:1;" d="M 6.515625 8 C 6.472656 8.050781 6.429688 8.09375 6.378906 8.132812 C 6.367188 8.140625 6.351562 8.152344 6.335938 8.164062 C 6.320312 8.175781 6.304688 8.1875 6.289062 8.199219 C 6.273438 8.210938 6.257812 8.222656 6.242188 8.234375 C 6.1875 8.277344 6.132812 8.316406 6.078125 8.359375 C 6.035156 8.386719 5.996094 8.417969 5.957031 8.445312 C 5.875 8.511719 5.789062 8.574219 5.703125 8.636719 C 5.582031 8.730469 5.457031 8.820312 5.335938 8.914062 C 5.136719 9.0625 4.9375 9.210938 4.738281 9.363281 C 4.542969 9.507812 4.351562 9.652344 4.15625 9.796875 C 4.144531 9.804688 4.132812 9.8125 4.121094 9.824219 C 4.0625 9.867188 4 9.914062 3.941406 9.957031 C 3.824219 10.042969 3.707031 10.132812 3.59375 10.21875 C 3.582031 10.226562 3.570312 10.234375 3.558594 10.246094 C 3.273438 10.457031 2.988281 10.671875 2.703125 10.882812 C 2.464844 11.0625 2.222656 11.246094 1.984375 11.425781 C 1.914062 11.476562 1.847656 11.527344 1.777344 11.578125 C 1.726562 11.617188 1.675781 11.65625 1.625 11.695312 C 1.5625 11.742188 1.503906 11.785156 1.441406 11.832031 C 1.421875 11.847656 1.40625 11.859375 1.386719 11.875 C 1.367188 11.886719 1.351562 11.898438 1.335938 11.914062 C 1.320312 11.925781 1.304688 11.9375 1.289062 11.949219 C 1.21875 12 1.164062 12.003906 1.085938 12.003906 C 1.074219 12.003906 1.0625 12.003906 1.050781 12.003906 C 1.011719 12.003906 0.972656 12.003906 0.9375 12.003906 C 0.910156 12.003906 0.882812 12.003906 0.855469 12.003906 C 0.789062 12.003906 0.71875 12.003906 0.648438 12 C 0.578125 12 0.507812 12 0.433594 12 C 0.296875 12 0.15625 12 0.015625 12 C 0.0664062 11.941406 0.113281 11.898438 0.167969 11.855469 C 0.1875 11.839844 0.207031 11.828125 0.222656 11.8125 C 0.253906 11.789062 0.253906 11.789062 0.28125 11.765625 C 0.304688 11.75 0.324219 11.734375 0.34375 11.71875 C 0.402344 11.671875 0.457031 11.628906 0.515625 11.585938 C 0.550781 11.554688 0.589844 11.527344 0.625 11.5 C 1.09375 11.136719 1.558594 10.777344 2.027344 10.417969 C 2.105469 10.359375 2.179688 10.300781 2.257812 10.242188 C 2.28125 10.226562 2.28125 10.226562 2.304688 10.207031 C 2.550781 10.019531 2.792969 9.828125 3.039062 9.636719 C 3.292969 9.441406 3.542969 9.246094 3.796875 9.054688 C 3.941406 8.945312 4.082031 8.835938 4.222656 8.722656 C 5.003906 8.101562 5.632812 7.863281 6.515625 8 Z M 6.515625 8 "/>
<path style=" stroke:none;fill-rule:nonzero;fill:rgb(0.784314%,12.941177%,41.176471%);fill-opacity:1;" d="M 12.464844 8 C 13.632812 8 14.796875 8 16 8 C 16 8.875 16 9.75 16 10.648438 C 15.886719 10.59375 15.886719 10.59375 15.835938 10.554688 C 15.820312 10.542969 15.808594 10.535156 15.796875 10.527344 C 15.785156 10.515625 15.769531 10.507812 15.757812 10.496094 C 15.742188 10.484375 15.730469 10.476562 15.714844 10.464844 C 15.667969 10.429688 15.621094 10.394531 15.574219 10.359375 C 15.539062 10.332031 15.503906 10.308594 15.472656 10.28125 C 15.378906 10.214844 15.289062 10.144531 15.195312 10.074219 C 15.101562 10.003906 15.003906 9.929688 14.910156 9.859375 C 14.746094 9.738281 14.585938 9.617188 14.425781 9.496094 C 14.257812 9.371094 14.09375 9.246094 13.929688 9.121094 C 13.917969 9.113281 13.90625 9.105469 13.898438 9.097656 C 13.847656 9.0625 13.792969 9.023438 13.742188 8.984375 C 13.316406 8.664062 12.890625 8.34375 12.464844 8.023438 C 12.464844 8.015625 12.464844 8.007812 12.464844 8 Z M 12.464844 8 "/>
<path style=" stroke:none;fill-rule:nonzero;fill:rgb(0.392157%,12.941177%,41.176471%);fill-opacity:1;" d="M 0 8 C 1.164062 8 2.332031 8 3.535156 8 C 3.488281 8.050781 3.453125 8.085938 3.40625 8.125 C 3.394531 8.132812 3.378906 8.144531 3.367188 8.152344 C 3.355469 8.160156 3.34375 8.171875 3.328125 8.183594 C 3.308594 8.199219 3.308594 8.199219 3.285156 8.214844 C 3.238281 8.25 3.191406 8.285156 3.144531 8.320312 C 3.109375 8.34375 3.078125 8.371094 3.042969 8.394531 C 2.953125 8.464844 2.859375 8.535156 2.769531 8.601562 C 2.671875 8.675781 2.574219 8.746094 2.480469 8.820312 C 2.308594 8.945312 2.136719 9.074219 1.964844 9.203125 C 1.808594 9.320312 1.65625 9.4375 1.5 9.554688 C 1.320312 9.691406 1.136719 9.824219 0.957031 9.960938 C 0.863281 10.03125 0.765625 10.105469 0.671875 10.175781 C 0.582031 10.242188 0.492188 10.308594 0.402344 10.378906 C 0.367188 10.402344 0.335938 10.425781 0.300781 10.453125 C 0.257812 10.484375 0.210938 10.519531 0.167969 10.554688 C 0.152344 10.5625 0.140625 10.574219 0.128906 10.582031 C 0.0390625 10.648438 0.0390625 10.648438 0 10.648438 C 0 9.777344 0 8.902344 0 8 Z M 0 8 "/>
<path style=" stroke:none;fill-rule:nonzero;fill:rgb(0.784314%,12.941177%,41.176471%);fill-opacity:1;" d="M 16 1.351562 C 16 2.222656 16 3.097656 16 4 C 14.835938 4 13.667969 4 12.464844 4 C 12.511719 3.949219 12.546875 3.914062 12.59375 3.875 C 12.613281 3.863281 12.613281 3.863281 12.632812 3.847656 C 12.644531 3.839844 12.65625 3.828125 12.671875 3.816406 C 12.691406 3.800781 12.691406 3.800781 12.714844 3.785156 C 12.761719 3.75 12.808594 3.714844 12.855469 3.679688 C 12.890625 3.65625 12.921875 3.628906 12.957031 3.605469 C 13.046875 3.535156 13.140625 3.464844 13.230469 3.398438 C 13.328125 3.324219 13.425781 3.253906 13.519531 3.179688 C 13.691406 3.054688 13.863281 2.925781 14.035156 2.796875 C 14.191406 2.679688 14.34375 2.5625 14.5 2.445312 C 14.679688 2.308594 14.863281 2.175781 15.042969 2.039062 C 15.136719 1.96875 15.234375 1.894531 15.328125 1.824219 C 15.417969 1.757812 15.507812 1.691406 15.597656 1.621094 C 15.632812 1.597656 15.664062 1.574219 15.699219 1.546875 C 15.742188 1.515625 15.789062 1.480469 15.832031 1.445312 C 15.847656 1.4375 15.859375 1.425781 15.871094 1.417969 C 15.960938 1.351562 15.960938 1.351562 16 1.351562 Z M 16 1.351562 "/>
<path style=" stroke:none;fill-rule:nonzero;fill:rgb(0.392157%,12.941177%,41.176471%);fill-opacity:1;" d="M 0 1.351562 C 0.113281 1.40625 0.113281 1.40625 0.164062 1.445312 C 0.183594 1.460938 0.183594 1.460938 0.203125 1.472656 C 0.214844 1.484375 0.230469 1.492188 0.242188 1.503906 C 0.257812 1.515625 0.269531 1.523438 0.285156 1.535156 C 0.332031 1.570312 0.378906 1.605469 0.425781 1.640625 C 0.460938 1.667969 0.496094 1.691406 0.527344 1.71875 C 0.621094 1.785156 0.710938 1.855469 0.804688 1.925781 C 0.898438 1.996094 0.996094 2.070312 1.089844 2.140625 C 1.253906 2.261719 1.414062 2.382812 1.574219 2.503906 C 1.742188 2.628906 1.90625 2.753906 2.070312 2.878906 C 2.082031 2.886719 2.09375 2.894531 2.101562 2.902344 C 2.152344 2.9375 2.207031 2.976562 2.257812 3.015625 C 2.683594 3.335938 3.109375 3.65625 3.535156 3.976562 C 3.535156 3.984375 3.535156 3.992188 3.535156 4 C 2.367188 4 1.203125 4 0 4 C 0 3.125 0 2.25 0 1.351562 Z M 0 1.351562 "/>
<path style=" stroke:none;fill-rule:nonzero;fill:rgb(78.431374%,7.058824%,18.82353%);fill-opacity:1;" d="M 10.683594 8 C 11.503906 7.730469 12.171875 8.128906 12.898438 8.671875 C 12.90625 8.679688 12.917969 8.6875 12.929688 8.695312 C 13.21875 8.914062 13.507812 9.140625 13.792969 9.367188 C 13.960938 9.5 14.128906 9.628906 14.296875 9.757812 C 14.308594 9.769531 14.320312 9.777344 14.332031 9.789062 C 14.390625 9.832031 14.453125 9.878906 14.511719 9.925781 C 14.882812 10.210938 15.253906 10.5 15.625 10.789062 C 15.652344 10.8125 15.652344 10.8125 15.679688 10.835938 C 15.730469 10.875 15.78125 10.914062 15.832031 10.957031 C 15.847656 10.96875 15.863281 10.980469 15.878906 10.992188 C 15.894531 11.003906 15.90625 11.011719 15.921875 11.023438 C 15.9375 11.039062 15.9375 11.039062 15.957031 11.050781 C 15.984375 11.074219 15.984375 11.074219 16 11.101562 C 16 11.167969 16 11.234375 16 11.300781 C 16 11.328125 16 11.328125 16 11.359375 C 16 11.421875 16 11.488281 16 11.550781 C 16 11.59375 16 11.636719 16 11.679688 C 16 11.789062 16 11.894531 16 12 C 15.738281 11.816406 15.480469 11.625 15.222656 11.433594 C 15.164062 11.386719 15.101562 11.339844 15.039062 11.292969 C 14.933594 11.214844 14.828125 11.136719 14.722656 11.058594 C 14.570312 10.941406 14.417969 10.828125 14.265625 10.714844 C 14.019531 10.527344 13.769531 10.339844 13.523438 10.15625 C 13.28125 9.976562 13.042969 9.796875 12.800781 9.613281 C 12.789062 9.605469 12.773438 9.59375 12.757812 9.582031 C 12.683594 9.523438 12.609375 9.46875 12.535156 9.414062 C 11.917969 8.949219 11.300781 8.488281 10.683594 8.023438 C 10.683594 8.015625 10.683594 8.007812 10.683594 8 Z M 10.683594 8 "/>
<path style=" stroke:none;fill-rule:nonzero;fill:rgb(78.431374%,7.058824%,18.82353%);fill-opacity:1;" d="M 0 0 C 0.261719 0.183594 0.519531 0.375 0.777344 0.566406 C 0.835938 0.613281 0.898438 0.660156 0.960938 0.707031 C 1.066406 0.785156 1.171875 0.863281 1.277344 0.941406 C 1.429688 1.058594 1.582031 1.171875 1.734375 1.285156 C 1.980469 1.472656 2.230469 1.660156 2.476562 1.84375 C 2.71875 2.023438 2.957031 2.203125 3.199219 2.386719 C 3.210938 2.394531 3.226562 2.40625 3.242188 2.417969 C 3.316406 2.476562 3.390625 2.53125 3.464844 2.585938 C 4.082031 3.050781 4.699219 3.511719 5.316406 3.976562 C 5.316406 3.984375 5.316406 3.992188 5.316406 4 C 4.496094 4.269531 3.828125 3.871094 3.101562 3.328125 C 3.085938 3.316406 3.085938 3.316406 3.070312 3.304688 C 2.78125 3.085938 2.492188 2.859375 2.207031 2.632812 C 2.039062 2.5 1.871094 2.371094 1.703125 2.242188 C 1.691406 2.230469 1.679688 2.222656 1.667969 2.210938 C 1.609375 2.167969 1.546875 2.121094 1.488281 2.074219 C 1.117188 1.789062 0.746094 1.5 0.375 1.210938 C 0.355469 1.195312 0.339844 1.179688 0.320312 1.164062 C 0.269531 1.125 0.21875 1.085938 0.167969 1.042969 C 0.152344 1.03125 0.136719 1.019531 0.121094 1.007812 C 0.105469 0.996094 0.09375 0.988281 0.078125 0.976562 C 0.0664062 0.964844 0.0546875 0.957031 0.0429688 0.949219 C 0.015625 0.925781 0.015625 0.925781 0 0.898438 C 0 0.832031 0 0.765625 0 0.699219 C 0 0.679688 0 0.660156 0 0.640625 C 0 0.578125 0 0.511719 0 0.449219 C 0 0.40625 0 0.363281 0 0.320312 C 0 0.210938 0 0.105469 0 0 Z M 0 0 "/>
</g>
</svg>
