<svg width="16" height="12" viewBox="0 0 16 12" fill="none" xmlns="http://www.w3.org/2000/svg">
<g clip-path="url(#clip0_286_1334)">
<rect width="16" height="12" fill="white"/>
<path fill-rule="evenodd" clip-rule="evenodd" d="M0 8H16V12H0V8Z" fill="#14DC5A"/>
<path fill-rule="evenodd" clip-rule="evenodd" d="M0 0H16V5H0V0Z" fill="#0099B5"/>
<path d="M17.375 4.625V8.375H-1.375V4.625H17.375Z" fill="#F7FCFF" stroke="#C51918" stroke-width="0.75"/>
<path d="M0.999878 2.5687C1.02709 1.11916 2.50139 0.866254 2.99988 1.05502C2.98167 1.05979 1.78026 1.37883 1.75769 2.58139C1.73537 3.78533 2.92759 4.11643 2.94226 4.12045C2.47754 4.30373 0.972697 4.01798 0.999878 2.5687ZM6.60535 3.07455H7.12976L6.71765 3.49057L6.91589 4.05795L6.36414 3.77866L5.87292 4.05795L6.01355 3.49057L5.54285 3.07455H6.1571L6.36414 2.53842L6.60535 3.07455ZM8.60535 3.07455H9.12976L8.71765 3.49057L8.91589 4.05795L8.36414 3.77866L7.87292 4.05795L8.01355 3.49057L7.54285 3.07455H8.1571L8.36414 2.53842L8.60535 3.07455ZM10.6053 3.07455H11.1298L10.7177 3.49057L10.9159 4.05795L10.3641 3.77866L9.87292 4.05795L10.0135 3.49057L9.54285 3.07455H10.1571L10.3641 2.53842L10.6053 3.07455ZM12.6053 3.07455H13.1298L12.7177 3.49057L12.9159 4.05795L12.3641 3.77866L11.8729 4.05795L12.0135 3.49057L11.5428 3.07455H12.1571L12.3641 2.53842L12.6053 3.07455ZM4.72937 3.0726H5.25378L4.84167 3.48862L5.03992 4.05502L4.48816 3.7767L3.99695 4.05502L4.13757 3.48862L3.66687 3.0726H4.28113L4.48718 2.53647L4.72937 3.0726ZM6.57703 1.75522H7.10144L6.68933 2.17123L6.88757 2.73764L6.33582 2.45932L5.8446 2.73764L5.98523 2.17123L5.51453 1.75522H6.12878L6.33582 1.21909L6.57703 1.75522ZM8.57703 1.75522H9.10144L8.68933 2.17123L8.88757 2.73764L8.33582 2.45932L7.8446 2.73764L7.98523 2.17123L7.51453 1.75522H8.12878L8.33582 1.21909L8.57703 1.75522ZM10.577 1.75522H11.1014L10.6893 2.17123L10.8876 2.73764L10.3358 2.45932L9.8446 2.73764L9.98523 2.17123L9.51453 1.75522H10.1288L10.3358 1.21909L10.577 1.75522ZM12.577 1.75522H13.1014L12.6893 2.17123L12.8876 2.73764L12.3358 2.45932L11.8446 2.73764L11.9852 2.17123L11.5145 1.75522H12.1288L12.3358 1.21909L12.577 1.75522ZM8.60437 0.496429H9.12878L8.71667 0.912445L8.91492 1.47885L8.36414 1.20053L7.87195 1.47885L8.01257 0.912445L7.54187 0.496429H8.1571L8.36316 -0.0397034L8.60437 0.496429ZM10.6044 0.496429H11.1288L10.7167 0.912445L10.9149 1.47885L10.3641 1.20053L9.87195 1.47885L10.0126 0.912445L9.54187 0.496429H10.1571L10.3632 -0.0397034L10.6044 0.496429ZM12.6044 0.496429H13.1288L12.7167 0.912445L12.9149 1.47885L12.3641 1.20053L11.8719 1.47885L12.0126 0.912445L11.5419 0.496429H12.1571L12.3632 -0.0397034L12.6044 0.496429Z" fill="#F7FCFF"/>
</g>
<defs>
<clipPath id="clip0_286_1334">
<rect width="16" height="12" fill="white"/>
</clipPath>
</defs>
</svg>
